<svg version="1.1" id="Layer_1" xmlns="http://www.w3.org/2000/svg" xmlns:xlink="http://www.w3.org/1999/xlink" x="0px" y="0px"
	 width="100%" viewBox="0 0 720 512" enable-background="new 0 0 720 512" xml:space="preserve">
<path fill="#000000" opacity="1.000000" stroke="none" 
	d="
M529.238647,372.212646 
	C515.134827,387.054077 499.366791,399.060486 480.984100,407.332336 
	C464.068756,414.943909 446.445709,420.018921 427.716797,420.327820 
	C411.405609,420.596893 395.046997,421.039185 379.040314,417.149231 
	C369.539612,414.840363 360.254669,411.679718 351.342590,407.615051 
	C327.570831,396.773041 308.182892,380.428894 292.344116,359.811920 
	C279.801056,343.484924 270.626068,325.499146 265.332916,305.462402 
	C262.012665,292.893890 259.221313,280.280609 259.815765,267.296600 
	C260.331512,256.032227 259.295410,244.845963 256.365845,234.253708 
	C248.947189,207.430695 234.614670,186.011826 206.340195,177.067123 
	C196.345642,173.905319 186.187775,172.194931 175.755035,170.911819 
	C165.432190,169.642242 155.194412,169.734726 144.908249,169.314346 
	C140.411926,169.130585 139.206818,170.936905 139.213455,175.159790 
	C139.306076,233.985596 139.300858,292.811615 139.223038,351.637451 
	C139.218216,355.278046 140.392426,356.728394 144.105499,356.666718 
	C153.935074,356.503387 163.899551,357.596191 173.570038,356.339600 
	C187.913528,354.475830 202.648560,354.907379 216.444977,349.048889 
	C230.975861,342.878571 240.780685,332.245148 248.068176,318.724335 
	C251.096817,313.105164 253.440598,307.182465 255.732193,300.298126 
	C257.701538,303.034180 258.776825,304.868805 259.328613,307.179352 
	C264.003265,326.753448 272.855316,344.393066 284.807709,360.459961 
	C287.525513,364.113403 287.494385,366.395172 284.534607,369.910767 
	C273.095062,383.498596 259.289185,394.031494 243.407059,401.624451 
	C234.769150,405.754120 225.371017,408.063477 215.766373,409.451111 
	C189.190277,413.290649 162.411331,413.485504 135.678070,413.735657 
	C119.205162,413.889832 102.704239,413.001709 86.212318,413.266693 
	C81.530975,413.341888 80.726448,410.982635 80.733238,407.031860 
	C80.815765,359.037628 80.818390,311.043274 80.819046,263.048950 
	C80.819695,215.555466 80.793304,168.061981 80.781845,120.568489 
	C80.780136,113.485275 81.012566,113.106796 87.970657,113.148735 
	C115.795013,113.316399 143.618790,113.581268 171.442749,113.814354 
	C184.425812,113.923119 197.293518,115.619911 209.995453,117.910858 
	C238.590317,123.068291 263.291718,135.546234 282.089050,158.402176 
	C293.539886,172.325394 302.509003,187.595200 308.516541,204.647293 
	C313.203766,217.951813 315.737244,231.571198 317.791260,245.542755 
	C319.667938,258.308014 317.834625,271.146118 320.388031,283.704102 
	C324.496124,303.908417 332.509735,322.122009 347.907166,336.499054 
	C358.830200,346.698212 371.307556,354.510315 385.318024,359.416748 
	C401.802399,365.189514 419.202271,365.908661 435.950836,362.201416 
	C465.004181,355.770447 486.373596,338.353516 500.637421,312.096649 
	C511.369781,292.340393 512.733765,271.102997 511.582672,249.362701 
	C511.498260,247.768265 510.926422,246.199615 510.588379,244.651840 
	C512.708435,243.042099 513.744995,244.544464 514.853394,245.759598 
	C530.241272,262.629578 547.663025,277.266479 565.331482,291.622711 
	C568.029480,293.814850 568.716248,296.415314 567.986145,299.576904 
	C561.739990,326.623871 549.398499,350.457214 530.402466,370.777435 
	C530.064941,371.138489 529.806763,371.573761 529.238647,372.212646 
z"/>
<path fill="#000000" opacity="1.000000" stroke="none" 
	d="
M623.961426,189.066788 
	C618.787720,193.202530 618.640686,193.186615 614.916809,188.006424 
	C607.412903,177.567886 598.307251,168.895020 586.149475,164.300385 
	C576.757019,160.750824 567.113586,160.825790 558.301086,166.330261 
	C548.393921,172.518509 547.211609,185.942657 555.722229,195.407700 
	C566.527466,207.424698 579.161743,217.493057 591.298218,228.082809 
	C607.415466,242.145981 624.592773,255.023438 639.466431,270.473907 
	C650.835876,282.284210 659.919617,295.576996 664.638977,311.563782 
	C668.371155,324.206512 669.320435,337.179016 667.009583,349.921021 
	C662.815552,373.047272 651.227600,391.934021 631.329468,405.147583 
	C615.854370,415.424011 598.846985,420.294220 580.203674,420.481964 
	C565.590027,420.629120 551.322083,419.476898 537.534241,414.405243 
	C527.529846,410.725311 518.398743,405.602722 510.008820,398.020081 
	C514.695923,393.976685 518.920898,390.312256 523.167236,386.672699 
	C532.429016,378.734375 540.410278,369.595795 547.507263,359.745087 
	C550.076477,356.179016 552.514282,356.067474 555.343994,358.406006 
	C560.848694,362.955078 567.676636,364.305237 574.176941,365.393463 
	C589.919128,368.028992 608.734497,354.363770 610.242249,338.787415 
	C610.927917,331.703705 607.754822,324.552185 603.175903,318.605835 
	C594.999390,307.987274 584.804993,299.413910 574.548706,290.971222 
	C553.247742,273.436859 532.020752,255.856064 513.715576,235.057755 
	C505.725983,225.979889 501.185059,214.726074 494.265564,205.002518 
	C483.872284,190.397446 470.737122,179.040680 454.357239,171.397659 
	C438.069458,163.797623 420.852417,161.662796 403.416077,163.729370 
	C374.683075,167.134842 352.103180,181.482269 335.652740,205.327271 
	C331.390320,211.505692 328.095490,218.185745 325.743774,225.332550 
	C325.253021,226.823929 325.040619,229.023941 322.825226,228.794250 
	C320.605499,228.564102 320.980560,226.389648 320.703583,224.824127 
	C317.099182,204.452988 309.044525,185.889175 297.620728,168.762894 
	C295.218414,165.161423 295.029388,162.596939 298.094055,159.166946 
	C314.626099,140.664291 334.347382,126.833328 357.211212,117.240822 
	C379.700470,107.805489 403.215546,104.081642 427.291016,105.901772 
	C445.392609,107.270271 463.171082,111.160118 479.805511,119.286522 
	C488.613800,123.589622 496.948944,128.592804 505.081787,133.957657 
	C507.652191,135.653275 509.218201,135.405365 511.017090,133.317291 
	C518.521362,124.606644 527.784668,118.326210 538.081360,113.348839 
	C547.324707,108.880623 557.197571,106.525368 567.225830,105.805466 
	C598.147461,103.585701 623.818298,115.506989 645.790771,136.502884 
	C650.592651,141.091324 654.898926,146.165237 659.447632,150.993240 
	C662.926453,154.685608 661.098328,156.512100 658.309448,158.938248 
	C646.911743,168.853363 635.596375,178.863205 623.961426,189.066788 
z"/>
</svg>